{"title":"Pirates of the Caribbean-1 (2003) HQ 1080p x264 DTS-HDMA Hindi D","uid":15571283,"size":20666168383,"categoryP":"video","categoryS":"hd___movies","magnet":"?xt=urn:btih:c3ceeec7035f09e258ee939a81a70694835d6faa&amp;dn=Pirates+of+the+Caribbean-1+%282003%29+HQ+1080p+x264+DTS-HDMA+Hindi+D&amp;tr=udp%3A%2F%2Ftracker.leechers-paradise.org%3A6969&amp;tr=udp%3A%2F%2Fzer0day.ch%3A1337&amp;tr=udp%3A%2F%2Fopen.demonii.com%3A1337&amp;tr=udp%3A%2F%2Ftracker.coppersurfer.tk%3A6969&amp;tr=udp%3A%2F%2Fexodus.desync.com%3A6969","seeders":1,"leechers":2,"uploader":"SaM","files":3,"time":1471263740,"description":"- HollyWooD Movie-\r\n\r\nPirates Of The Caribean\r\nThe Curse of the Black Pearl\r\n** 2003 **\r\nHQ 1080p / Blu-ray Rip / x264\r\nHindi DTS-HDMA 5.1\r\nEnglish DTS 5.1\r\nEnglish H.I &amp; French subs \r\n \nhttp://extraimago.com/image/w7RD \nhttp://extraimago.com/image/w7R5 \nhttp://extraimago.com/image/w7Rg \nhttp://extraimago.com/image/w7RX \nhttp://extraimago.com/image/w7RP \nhttp://extraimago.com/image/w7RG \nhttp://extraimago.com/image/w7Rr \nhttp://extraimago.com/image/w7RV \nhttp://extraimago.com/image/w7R6 \nhttp://extraimago.com/image/w7Rx \nhttp://extraimago.com/image/w7Rt \nhttp://extraimago.com/image/w7Rk \nhttp://extraimago.com/image/w7RH \nhttp://extraimago.com/image/w7RF\r\n\r\n\r\nSource : Fr BD50 @ DDR + Raw PCM 5.1 Hindi Audio\r\nFormat : Matroska\r\nFile size : 19.1 GiB\r\nDuration : 2h 23mn\r\nOverall bit rate : 19.1 Mbps\r\n\r\n\r\n[B]Video\r\nFormat : AVC\r\nFormat/Info : Advanced Video Codec\r\nFormat profile :   \r\nFormat settings, CABAC : Yes\r\nFormat settings, ReFrames : 5 frames\r\nCodec ID : V_MPEG4/ISO/AVC\r\nDuration : 2h 23mn\r\nBit rate : 15.1 Mbps\r\nWidth : 1 920 pixels\r\nHeight : 800 pixels\r\nDisplay aspect ratio : 2.40:1\r\nFrame rate mode : Constant\r\nFrame rate : 23.976 (24000/1001) fps\r\ncolor space : YUV\r\nChroma subsampling : 4:2:0\r\nBit depth : 8 bits\r\nScan type : Progressive\r\nBits/(Pixel*Frame) : 0.410\r\nStream size : 15.1 GiB (79%)\r\n\r\nAudio\r\nFormat : DTS\r\nFormat/Info : Digital Theater Systems\r\nFormat profile : MA / Core\r\nMode : 16\r\nFormat settings, Endianness : Big\r\nCodec ID : A_DTS\r\nDuration : 2h 23mn\r\nBit rate mode : Variable / Constant\r\nBit rate : 2 448 Kbps / 1 509 Kbps\r\nChannel(s) : 6 channels\r\nChannel positions : Front: L C R, Side: L R, LFE\r\nSampling rate : 48.0 KHz\r\nFrame rate : 93.750 fps (512 spf)\r\nBit depth : 16 bits\r\nCompression mode : Lossless / Lossy\r\nStream size : 2.45 GiB (13%)\r\nLanguage : Hindi\r\nDefault : Yes\r\nForced : No\r\n\r\nAudio #2\r\nID : 3\r\nFormat : DTS\r\nFormat/Info : Digital Theater Systems\r\nMode : 16\r\nFormat settings, Endianness : Big\r\nCodec ID : A_DTS\r\nDuration : 2h 23mn\r\nBit rate mode : Constant\r\nBit rate : 1 509 Kbps\r\nChannel(s) : 6 channels\r\nChannel positions : Front: L C R, Side: L R, LFE\r\nSampling rate : 48.0 KHz\r\nFrame rate : 93.750 fps (512 spf)\r\nBit depth : 24 bits\r\nCompression mode : Lossy\r\nStream size : 1.51 GiB (8%)\r\nLanguage : English\r\nDefault : No\r\nForced : No\r\nChapters : No\r\n\r\nSample : Included\r\n[/B]\r\nA DDR Exclusive Encode","torrent":{"xt":"urn:btih:c3ceeec7035f09e258ee939a81a70694835d6faa","amp;dn":"Pirates+of+the+Caribbean-1+%282003%29+HQ+1080p+x264+DTS-HDMA+Hindi+D","amp;tr":["udp%3A%2F%2Ftracker.leechers-paradise.org%3A6969","udp%3A%2F%2Fzer0day.ch%3A1337","udp%3A%2F%2Fopen.demonii.com%3A1337","udp%3A%2F%2Ftracker.coppersurfer.tk%3A6969","udp%3A%2F%2Fexodus.desync.com%3A6969"],"infoHash":"c3ceeec7035f09e258ee939a81a70694835d6faa","infoHashBuffer":{"type":"Buffer","data":[195,206,238,199,3,95,9,226,88,238,147,154,129,167,6,148,131,93,111,170]},"announce":[],"urlList":[]}}